<?xml version="1.0" standalone="no"?>
<!DOCTYPE svg PUBLIC "-//W3C//DTD SVG 20010904//EN"
 "http://www.w3.org/TR/2001/REC-SVG-20010904/DTD/svg10.dtd">
<svg version="1.0" xmlns="http://www.w3.org/2000/svg"
 width="260.000000pt" height="260.000000pt" viewBox="0 0 260.000000 260.000000"
 preserveAspectRatio="xMidYMid meet">
<metadata>
Created by potrace 1.14, written by Peter Selinger 2001-2017
</metadata>
<g transform="translate(0.000000,260.000000) scale(0.100000,-0.100000)"
fill="#000000" stroke="none">
<path d="M603 2445 c-61 -26 -73 -62 -73 -216 0 -125 2 -139 23 -170 15 -22
38 -39 65 -49 37 -13 47 -13 84 0 27 10 50 27 65 49 21 31 23 45 23 170 0 155
-12 190 -75 217 -43 17 -71 17 -112 -1z"/>
<path d="M1873 2445 c-61 -26 -73 -62 -73 -216 0 -125 2 -139 23 -170 15 -22
38 -39 65 -49 37 -13 47 -13 84 0 27 10 50 27 65 49 21 31 23 45 23 170 0 155
-12 190 -75 217 -43 17 -71 17 -112 -1z"/>
<path d="M182 2179 c-46 -13 -109 -79 -122 -128 -7 -27 -10 -305 -8 -883 l3
-843 24 -38 c13 -21 42 -50 64 -65 l41 -27 1116 0 1116 0 41 27 c22 15 51 44
64 65 l24 38 0 866 0 865 -27 41 c-15 22 -44 51 -65 64 -35 22 -50 24 -195 27
l-158 4 0 -54 c0 -73 -32 -136 -85 -165 -117 -66 -245 21 -245 164 l0 53 -470
0 -470 0 0 -53 c0 -72 -33 -135 -85 -164 -117 -66 -245 21 -245 164 l0 53
-142 -1 c-79 0 -158 -5 -176 -10z m2068 -1059 c0 -466 -3 -636 -12 -655 -26
-57 7 -55 -933 -55 -940 0 -907 -2 -933 55 -9 19 -12 189 -12 655 l0 630 945
0 945 0 0 -630z"/>
<path d="M1575 1240 c-176 -220 -321 -400 -323 -400 -1 0 -104 78 -228 173
-123 94 -231 172 -239 172 -22 0 -150 -176 -139 -191 14 -21 636 -494 648
-493 11 0 782 957 792 983 4 9 -25 39 -83 85 -48 39 -92 71 -98 71 -5 -1 -154
-181 -330 -400z"/>
</g>
</svg>
